# xmcd
#
# Track frame offsets:
#	150
#	24955
#	36648
#	56788
#	71829
#	85362
#	93717
#	110987
#	132509
#	148796
#	174988
#	195267
#	210202
#	230103
#	253151
#	268469
#	282842
#
# Disc length: 4728 seconds
#
# Revision: 4
# Processed by: cddbd v1.5.2PL0 Copyright (c) Steve Scherf et al.
# Submitted via: audiograbber 1.83.01
#
DISCID=11127611
DTITLE=Big Mama Thornton - In Europe
DYEAR=1965
DGENRE=Blues
TTITLE0=Sweet Little Angel
TTITLE1=The Place
TTITLE2=Little Red Rooster
TTITLE3=Unlucky Girl
TTITLE4=Hound Dog
TTITLE5=Swing It On Home
TTITLE6=Your Love Is Where It Ought to Be
TTITLE7=Session Blues
TTITLE8=Down Home Shake Down
TTITLE9=My Heavy Load
TTITLE10=School Boy
TTITLE11=I Need Your Love
TTITLE12=Good Time in London
TTITLE13=Chauffeur Blues
TTITLE14=Swing It On Home (take 2)
TTITLE15=Hound Dog (take 2)
TTITLE16=Big Mama Talks with Chris Strachwitz
EXTD=Recorded on Oct 20 1965 at Wessex Studio in London, England.\nFeaturing Bu
EXTD=ddy Guy, Fred McDewell, Eddie Boyd.
EXTT0=
EXTT1=
EXTT2=
EXTT3=
EXTT4=
EXTT5=
EXTT6=
EXTT7=
EXTT8=
EXTT9=
EXTT10=
EXTT11=
EXTT12=
EXTT13=
EXTT14=
EXTT15=
EXTT16=
PLAYORDER=
